<svg viewBox="-84.238 -320.000 148.475 320.000" xmlns="http://www.w3.org/2000/svg">
<line x1="0.000" y1="0.000" x2="0.000" y2="-10.000" stroke-width="1" stroke="blue" />
<line x1="0.000" y1="-10.000" x2="0.000" y2="-20.000" stroke-width="1" stroke="blue" />
<line x1="0.000" y1="-20.000" x2="0.000" y2="-30.000" stroke-width="1" stroke="green" />
<line x1="0.000" y1="-30.000" x2="0.000" y2="-40.000" stroke-width="1" stroke="green" />
<line x1="0.000" y1="-40.000" x2="0.000" y2="-50.000" stroke-width="1" stroke="green" />
<line x1="0.000" y1="-50.000" x2="0.000" y2="-60.000" stroke-width="1" stroke="green" />
<line x1="0.000" y1="-60.000" x2="0.000" y2="-70.000" stroke-width="1" stroke="green" />
<line x1="0.000" y1="-70.000" x2="0.000" y2="-80.000" stroke-width="1" stroke="green" />
<line x1="0.000" y1="-80.000" x2="4.337" y2="-89.011" stroke-width="1" stroke="blue" />
<line x1="4.337" y1="-89.011" x2="8.673" y2="-98.022" stroke-width="1" stroke="blue" />
<line x1="8.673" y1="-98.022" x2="13.010" y2="-107.032" stroke-width="1" stroke="green" />
<line x1="13.010" y1="-107.032" x2="17.346" y2="-116.043" stroke-width="1" stroke="green" />
<line x1="17.346" y1="-116.043" x2="25.162" y2="-122.282" stroke-width="1" stroke="blue" />
<line x1="25.162" y1="-122.282" x2="32.977" y2="-128.521" stroke-width="1" stroke="blue" />
<line x1="32.977" y1="-128.521" x2="42.724" y2="-130.753" stroke-width="1" stroke="blue" />
<line x1="42.724" y1="-130.753" x2="52.472" y2="-132.986" stroke-width="1" stroke="blue" />
<line x1="32.977" y1="-128.521" x2="37.313" y2="-137.531" stroke-width="1" stroke="blue" />
<line x1="37.313" y1="-137.531" x2="41.650" y2="-146.542" stroke-width="1" stroke="blue" />
<line x1="32.977" y1="-128.521" x2="40.792" y2="-134.759" stroke-width="1" stroke="green" />
<line x1="40.792" y1="-134.759" x2="48.607" y2="-140.998" stroke-width="1" stroke="green" />
<line x1="48.607" y1="-140.998" x2="56.422" y2="-147.237" stroke-width="1" stroke="blue" />
<line x1="56.422" y1="-147.237" x2="64.238" y2="-153.476" stroke-width="1" stroke="blue" />
<line x1="17.346" y1="-116.043" x2="17.346" y2="-126.043" stroke-width="1" stroke="blue" />
<line x1="17.346" y1="-126.043" x2="17.346" y2="-136.043" stroke-width="1" stroke="blue" />
<line x1="17.346" y1="-136.043" x2="21.683" y2="-145.054" stroke-width="1" stroke="blue" />
<line x1="21.683" y1="-145.054" x2="26.020" y2="-154.065" stroke-width="1" stroke="blue" />
<line x1="17.346" y1="-136.043" x2="13.010" y2="-145.054" stroke-width="1" stroke="blue" />
<line x1="13.010" y1="-145.054" x2="8.673" y2="-154.065" stroke-width="1" stroke="blue" />
<line x1="17.346" y1="-136.043" x2="17.346" y2="-146.043" stroke-width="1" stroke="green" />
<line x1="17.346" y1="-146.043" x2="17.346" y2="-156.043" stroke-width="1" stroke="green" />
<line x1="17.346" y1="-156.043" x2="17.346" y2="-166.043" stroke-width="1" stroke="blue" />
<line x1="17.346" y1="-166.043" x2="17.346" y2="-176.043" stroke-width="1" stroke="blue" />
<line x1="17.346" y1="-116.043" x2="21.683" y2="-125.054" stroke-width="1" stroke="green" />
<line x1="21.683" y1="-125.054" x2="26.020" y2="-134.065" stroke-width="1" stroke="green" />
<line x1="26.020" y1="-134.065" x2="30.356" y2="-143.075" stroke-width="1" stroke="green" />
<line x1="30.356" y1="-143.075" x2="34.693" y2="-152.086" stroke-width="1" stroke="green" />
<line x1="34.693" y1="-152.086" x2="39.029" y2="-161.097" stroke-width="1" stroke="blue" />
<line x1="39.029" y1="-161.097" x2="43.366" y2="-170.108" stroke-width="1" stroke="blue" />
<line x1="43.366" y1="-170.108" x2="51.181" y2="-176.346" stroke-width="1" stroke="blue" />
<line x1="51.181" y1="-176.346" x2="58.996" y2="-182.585" stroke-width="1" stroke="blue" />
<line x1="43.366" y1="-170.108" x2="43.366" y2="-180.108" stroke-width="1" stroke="blue" />
<line x1="43.366" y1="-180.108" x2="43.366" y2="-190.108" stroke-width="1" stroke="blue" />
<line x1="43.366" y1="-170.108" x2="47.703" y2="-179.118" stroke-width="1" stroke="green" />
<line x1="47.703" y1="-179.118" x2="52.039" y2="-188.129" stroke-width="1" stroke="green" />
<line x1="52.039" y1="-188.129" x2="56.376" y2="-197.140" stroke-width="1" stroke="blue" />
<line x1="56.376" y1="-197.140" x2="60.712" y2="-206.151" stroke-width="1" stroke="blue" />
<line x1="0.000" y1="-80.000" x2="-4.337" y2="-89.011" stroke-width="1" stroke="blue" />
<line x1="-4.337" y1="-89.011" x2="-8.673" y2="-98.022" stroke-width="1" stroke="blue" />
<line x1="-8.673" y1="-98.022" x2="-13.010" y2="-107.032" stroke-width="1" stroke="green" />
<line x1="-13.010" y1="-107.032" x2="-17.346" y2="-116.043" stroke-width="1" stroke="green" />
<line x1="-17.346" y1="-116.043" x2="-17.346" y2="-126.043" stroke-width="1" stroke="blue" />
<line x1="-17.346" y1="-126.043" x2="-17.346" y2="-136.043" stroke-width="1" stroke="blue" />
<line x1="-17.346" y1="-136.043" x2="-13.010" y2="-145.054" stroke-width="1" stroke="blue" />
<line x1="-13.010" y1="-145.054" x2="-8.673" y2="-154.065" stroke-width="1" stroke="blue" />
<line x1="-17.346" y1="-136.043" x2="-21.683" y2="-145.054" stroke-width="1" stroke="blue" />
<line x1="-21.683" y1="-145.054" x2="-26.020" y2="-154.065" stroke-width="1" stroke="blue" />
<line x1="-17.346" y1="-136.043" x2="-17.346" y2="-146.043" stroke-width="1" stroke="green" />
<line x1="-17.346" y1="-146.043" x2="-17.346" y2="-156.043" stroke-width="1" stroke="green" />
<line x1="-17.346" y1="-156.043" x2="-17.346" y2="-166.043" stroke-width="1" stroke="blue" />
<line x1="-17.346" y1="-166.043" x2="-17.346" y2="-176.043" stroke-width="1" stroke="blue" />
<line x1="-17.346" y1="-116.043" x2="-25.162" y2="-122.282" stroke-width="1" stroke="blue" />
<line x1="-25.162" y1="-122.282" x2="-32.977" y2="-128.521" stroke-width="1" stroke="blue" />
<line x1="-32.977" y1="-128.521" x2="-37.313" y2="-137.531" stroke-width="1" stroke="blue" />
<line x1="-37.313" y1="-137.531" x2="-41.650" y2="-146.542" stroke-width="1" stroke="blue" />
<line x1="-32.977" y1="-128.521" x2="-42.724" y2="-130.753" stroke-width="1" stroke="blue" />
<line x1="-42.724" y1="-130.753" x2="-52.472" y2="-132.986" stroke-width="1" stroke="blue" />
<line x1="-32.977" y1="-128.521" x2="-40.792" y2="-134.759" stroke-width="1" stroke="green" />
<line x1="-40.792" y1="-134.759" x2="-48.607" y2="-140.998" stroke-width="1" stroke="green" />
<line x1="-48.607" y1="-140.998" x2="-56.422" y2="-147.237" stroke-width="1" stroke="blue" />
<line x1="-56.422" y1="-147.237" x2="-64.238" y2="-153.476" stroke-width="1" stroke="blue" />
<line x1="-17.346" y1="-116.043" x2="-21.683" y2="-125.054" stroke-width="1" stroke="green" />
<line x1="-21.683" y1="-125.054" x2="-26.020" y2="-134.065" stroke-width="1" stroke="green" />
<line x1="-26.020" y1="-134.065" x2="-30.356" y2="-143.075" stroke-width="1" stroke="green" />
<line x1="-30.356" y1="-143.075" x2="-34.693" y2="-152.086" stroke-width="1" stroke="green" />
<line x1="-34.693" y1="-152.086" x2="-39.029" y2="-161.097" stroke-width="1" stroke="blue" />
<line x1="-39.029" y1="-161.097" x2="-43.366" y2="-170.108" stroke-width="1" stroke="blue" />
<line x1="-43.366" y1="-170.108" x2="-43.366" y2="-180.108" stroke-width="1" stroke="blue" />
<line x1="-43.366" y1="-180.108" x2="-43.366" y2="-190.108" stroke-width="1" stroke="blue" />
<line x1="-43.366" y1="-170.108" x2="-51.181" y2="-176.346" stroke-width="1" stroke="blue" />
<line x1="-51.181" y1="-176.346" x2="-58.996" y2="-182.585" stroke-width="1" stroke="blue" />
<line x1="-43.366" y1="-170.108" x2="-47.703" y2="-179.118" stroke-width="1" stroke="green" />
<line x1="-47.703" y1="-179.118" x2="-52.039" y2="-188.129" stroke-width="1" stroke="green" />
<line x1="-52.039" y1="-188.129" x2="-56.376" y2="-197.140" stroke-width="1" stroke="blue" />
<line x1="-56.376" y1="-197.140" x2="-60.712" y2="-206.151" stroke-width="1" stroke="blue" />
<line x1="0.000" y1="-80.000" x2="0.000" y2="-90.000" stroke-width="1" stroke="green" />
<line x1="0.000" y1="-90.000" x2="0.000" y2="-100.000" stroke-width="1" stroke="green" />
<line x1="0.000" y1="-100.000" x2="0.000" y2="-110.000" stroke-width="1" stroke="green" />
<line x1="0.000" y1="-110.000" x2="0.000" y2="-120.000" stroke-width="1" stroke="green" />
<line x1="0.000" y1="-120.000" x2="0.000" y2="-130.000" stroke-width="1" stroke="green" />
<line x1="0.000" y1="-130.000" x2="0.000" y2="-140.000" stroke-width="1" stroke="green" />
<line x1="0.000" y1="-140.000" x2="0.000" y2="-150.000" stroke-width="1" stroke="green" />
<line x1="0.000" y1="-150.000" x2="0.000" y2="-160.000" stroke-width="1" stroke="green" />
<line x1="0.000" y1="-160.000" x2="0.000" y2="-170.000" stroke-width="1" stroke="blue" />
<line x1="0.000" y1="-170.000" x2="0.000" y2="-180.000" stroke-width="1" stroke="blue" />
<line x1="0.000" y1="-180.000" x2="0.000" y2="-190.000" stroke-width="1" stroke="green" />
<line x1="0.000" y1="-190.000" x2="0.000" y2="-200.000" stroke-width="1" stroke="green" />
<line x1="0.000" y1="-200.000" x2="4.337" y2="-209.011" stroke-width="1" stroke="blue" />
<line x1="4.337" y1="-209.011" x2="8.673" y2="-218.022" stroke-width="1" stroke="blue" />
<line x1="8.673" y1="-218.022" x2="16.488" y2="-224.260" stroke-width="1" stroke="blue" />
<line x1="16.488" y1="-224.260" x2="24.304" y2="-230.499" stroke-width="1" stroke="blue" />
<line x1="8.673" y1="-218.022" x2="8.673" y2="-228.022" stroke-width="1" stroke="blue" />
<line x1="8.673" y1="-228.022" x2="8.673" y2="-238.022" stroke-width="1" stroke="blue" />
<line x1="8.673" y1="-218.022" x2="13.010" y2="-227.032" stroke-width="1" stroke="green" />
<line x1="13.010" y1="-227.032" x2="17.346" y2="-236.043" stroke-width="1" stroke="green" />
<line x1="17.346" y1="-236.043" x2="21.683" y2="-245.054" stroke-width="1" stroke="blue" />
<line x1="21.683" y1="-245.054" x2="26.020" y2="-254.065" stroke-width="1" stroke="blue" />
<line x1="0.000" y1="-200.000" x2="-4.337" y2="-209.011" stroke-width="1" stroke="blue" />
<line x1="-4.337" y1="-209.011" x2="-8.673" y2="-218.022" stroke-width="1" stroke="blue" />
<line x1="-8.673" y1="-218.022" x2="-8.673" y2="-228.022" stroke-width="1" stroke="blue" />
<line x1="-8.673" y1="-228.022" x2="-8.673" y2="-238.022" stroke-width="1" stroke="blue" />
<line x1="-8.673" y1="-218.022" x2="-16.488" y2="-224.260" stroke-width="1" stroke="blue" />
<line x1="-16.488" y1="-224.260" x2="-24.304" y2="-230.499" stroke-width="1" stroke="blue" />
<line x1="-8.673" y1="-218.022" x2="-13.010" y2="-227.032" stroke-width="1" stroke="green" />
<line x1="-13.010" y1="-227.032" x2="-17.346" y2="-236.043" stroke-width="1" stroke="green" />
<line x1="-17.346" y1="-236.043" x2="-21.683" y2="-245.054" stroke-width="1" stroke="blue" />
<line x1="-21.683" y1="-245.054" x2="-26.020" y2="-254.065" stroke-width="1" stroke="blue" />
<line x1="0.000" y1="-200.000" x2="0.000" y2="-210.000" stroke-width="1" stroke="green" />
<line x1="0.000" y1="-210.000" x2="0.000" y2="-220.000" stroke-width="1" stroke="green" />
<line x1="0.000" y1="-220.000" x2="0.000" y2="-230.000" stroke-width="1" stroke="green" />
<line x1="0.000" y1="-230.000" x2="0.000" y2="-240.000" stroke-width="1" stroke="green" />
<line x1="0.000" y1="-240.000" x2="0.000" y2="-250.000" stroke-width="1" stroke="blue" />
<line x1="0.000" y1="-250.000" x2="0.000" y2="-260.000" stroke-width="1" stroke="blue" />
<line x1="0.000" y1="-260.000" x2="4.337" y2="-269.011" stroke-width="1" stroke="blue" />
<line x1="4.337" y1="-269.011" x2="8.673" y2="-278.022" stroke-width="1" stroke="blue" />
<line x1="0.000" y1="-260.000" x2="-4.337" y2="-269.011" stroke-width="1" stroke="blue" />
<line x1="-4.337" y1="-269.011" x2="-8.673" y2="-278.022" stroke-width="1" stroke="blue" />
<line x1="0.000" y1="-260.000" x2="0.000" y2="-270.000" stroke-width="1" stroke="green" />
<line x1="0.000" y1="-270.000" x2="0.000" y2="-280.000" stroke-width="1" stroke="green" />
<line x1="0.000" y1="-280.000" x2="0.000" y2="-290.000" stroke-width="1" stroke="blue" />
<line x1="0.000" y1="-290.000" x2="0.000" y2="-300.000" stroke-width="1" stroke="blue" />
</svg>