<svg viewBox="-30.000 -30.000 50.000 70.000" xmlns="http://www.w3.org/2000/svg">
<path d="M 0.000 0.000 Q 0.000 -15.000 0.000 -10.000" stroke-width="1" stroke="black" fill="none" />
<path d="M 0.000 -10.000 Q 5.000 -20.000 10.000 -10.000" stroke-width="1" stroke="black" fill="none" />
<path d="M 10.000 -10.000 Q 10.000 -15.000 10.000 0.000" stroke-width="1" stroke="black" fill="none" />
<path d="M 10.000 0.000 Q 15.000 -10.000 20.000 0.000" stroke-width="1" stroke="black" fill="none" />
<path d="M 20.000 0.000 Q 20.000 -5.000 20.000 10.000" stroke-width="1" stroke="black" fill="none" />
<path d="M 20.000 10.000 Q 15.000 0.000 10.000 10.000" stroke-width="1" stroke="black" fill="none" />
<path d="M 10.000 10.000 Q 10.000 5.000 10.000 20.000" stroke-width="1" stroke="black" fill="none" />
<path d="M 10.000 20.000 Q 15.000 10.000 20.000 20.000" stroke-width="1" stroke="black" fill="none" />
<path d="M 20.000 20.000 Q 20.000 15.000 20.000 30.000" stroke-width="1" stroke="black" fill="none" />
<path d="M 20.000 30.000 Q 15.000 20.000 10.000 30.000" stroke-width="1" stroke="black" fill="none" />
<path d="M 10.000 30.000 Q 10.000 15.000 10.000 20.000" stroke-width="1" stroke="black" fill="none" />
<path d="M 10.000 20.000 Q 5.000 10.000 -0.000 20.000" stroke-width="1" stroke="black" fill="none" />
<path d="M -0.000 20.000 Q -0.000 15.000 -0.000 30.000" stroke-width="1" stroke="black" fill="none" />
<path d="M -0.000 30.000 Q -5.000 20.000 -10.000 30.000" stroke-width="1" stroke="black" fill="none" />
<path d="M -10.000 30.000 Q -10.000 25.000 -10.000 40.000" stroke-width="1" stroke="black" fill="none" />
<path d="M -10.000 40.000 Q -5.000 30.000 -0.000 40.000" stroke-width="1" stroke="black" fill="none" />
</svg>